HIERARCHY
ROOT joint_Root
{
	OFFSET 0.0 0.0 0.0
	CHANNELS 6 Xposition Yposition Zposition Zrotation Xrotation Yrotation 
	JOINT Hips
	{
		OFFSET -0.726466 93.3139 -2.00062
		CHANNELS 6 Xposition Yposition Zposition Zrotation Xrotation Yrotation 
		JOINT Spine
		{
			OFFSET 15.7357 0.0 0.0
			CHANNELS 6 Xposition Yposition Zposition Zrotation Xrotation Yrotation 
			JOINT Chest
			{
				OFFSET 8.98455 -0.406207 0.0
				CHANNELS 6 Xposition Yposition Zposition Zrotation Xrotation Yrotation 
				JOINT Neck
				{
					OFFSET 16.3773 0.0 0.0
					CHANNELS 6 Xposition Yposition Zposition Zrotation Xrotation Yrotation 
					JOINT Head
					{
						OFFSET 6.45672 0.0 0.0
						CHANNELS 6 Xposition Yposition Zposition Zrotation Xrotation Yrotation 
						End Site
						{
							OFFSET 0.0 0.0 0.0
						}
					}
				}
				JOINT Shoulder_L
				{
					OFFSET 12.9942 -0.242716 4.98039
					CHANNELS 6 Xposition Yposition Zposition Zrotation Xrotation Yrotation 
					JOINT UpperArm_L
					{
						OFFSET 5.34809 0.0 0.0
						CHANNELS 6 Xposition Yposition Zposition Zrotation Xrotation Yrotation 
						JOINT LowerArm_L
						{
							OFFSET 24.3286 1.87007e-05 0.0
							CHANNELS 6 Xposition Yposition Zposition Zrotation Xrotation Yrotation 
							JOINT Hand_L
							{
								OFFSET 22.2916 0.0 0.0
								CHANNELS 6 Xposition Yposition Zposition Zrotation Xrotation Yrotation 
								End Site
								{
									OFFSET 0.0 0.0 0.0
								}
							}
						}
					}
				}
				JOINT Shoulder_R
				{
					OFFSET 12.9945 -0.242716 -4.98039
					CHANNELS 6 Xposition Yposition Zposition Zrotation Xrotation Yrotation 
					JOINT UpperArm_R
					{
						OFFSET -5.34813 0.0 0.0
						CHANNELS 6 Xposition Yposition Zposition Zrotation Xrotation Yrotation 
						JOINT LowerArm_R
						{
							OFFSET -24.3289 0.000322201 0.0
							CHANNELS 6 Xposition Yposition Zposition Zrotation Xrotation Yrotation 
							JOINT Hand_R
							{
								OFFSET -22.2915 -0.000108084 0.0
								CHANNELS 6 Xposition Yposition Zposition Zrotation Xrotation Yrotation 
								End Site
								{
									OFFSET 0.0 0.0 0.0
								}
							}
						}
					}
				}
			}
		}
		JOINT UpperLeg_L
		{
			OFFSET -2.19248 -6.46944 0.0
			CHANNELS 6 Xposition Yposition Zposition Zrotation Xrotation Yrotation 
			JOINT LowerLeg_L
			{
				OFFSET 39.0811 0.0 -1.23785e-05
				CHANNELS 6 Xposition Yposition Zposition Zrotation Xrotation Yrotation 
				JOINT Foot_L
				{
					OFFSET 40.9854 0.0 -1.26872e-05
					CHANNELS 6 Xposition Yposition Zposition Zrotation Xrotation Yrotation 
					JOINT Toes_L
					{
						OFFSET 11.7543 0.0 0.0
						CHANNELS 6 Xposition Yposition Zposition Zrotation Xrotation Yrotation 
						End Site
						{
							OFFSET 0.0 0.0 0.0
						}
					}
				}
			}
		}
		JOINT UpperLeg_R
		{
			OFFSET -2.19251 6.46944 0.0
			CHANNELS 6 Xposition Yposition Zposition Zrotation Xrotation Yrotation 
			JOINT LowerLeg_R
			{
				OFFSET -39.0811 -0.00228153 -0.0401928
				CHANNELS 6 Xposition Yposition Zposition Zrotation Xrotation Yrotation 
				JOINT Foot_R
				{
					OFFSET -40.9854 0.0 0.0
					CHANNELS 6 Xposition Yposition Zposition Zrotation Xrotation Yrotation 
					JOINT Toes_R
					{
						OFFSET -11.7543 0.0 0.0
						CHANNELS 6 Xposition Yposition Zposition Zrotation Xrotation Yrotation 
						End Site
						{
							OFFSET 0.0 0.0 0.0
						}
					}
				}
			}
		}
	}
}
MOTION
Frames:	8
Frame Time:	0.0333333
0.000000 0.000000 0.000000 0.000000 0.000000 -0.000000 0.844483 89.577100 70.121600 -88.577300 -0.067351 -176.529000 15.735700 0.000005 -0.000001 87.125000 80.692800 -86.180200 8.984550 -0.406207 -0.000000 10.834100 -0.901609 1.974200 16.377300 -0.000001 -0.000001 9.354990 -1.433050 -0.123691 6.456720 -0.000001 -0.000000 3.992240 -1.164840 -0.780281 12.994200 -0.242716 4.980390 -88.145900 -4.600060 -68.019000 5.348090 -0.000007 -0.000001 -67.008100 29.877800 -1.355470 24.328600 0.000019 0.000005 6.526470 6.609790 -44.826300 22.291600 -0.000001 0.000005 1.854250 5.578470 -10.130100 12.994500 -0.242716 -4.980390 89.408800 1.381900 -66.837700 -5.348130 -0.000001 -0.000004 -48.094300 28.922800 -25.979600 -24.328900 0.000322 -0.000009 -1.100120 -1.225220 -41.892800 -22.291500 -0.000108 -0.000004 3.074640 5.557950 -9.086650 -2.192480 -6.469440 -0.000000 -175.751000 -9.146630 -23.475500 39.081100 -0.000007 -0.000012 0.081432 -0.041549 62.964800 40.985400 -0.000006 -0.000013 2.693850 0.274417 -56.622800 11.754300 -0.000000 0.000003 -0.005477 -0.066019 -19.263300 -2.192510 6.469440 -0.000001 -178.972000 15.457700 170.498000 -39.081100 -0.002282 -0.040193 0.076509 -0.099067 36.468600 -40.985400 0.000008 0.000006 5.426740 -3.478660 -73.723700 -11.754300 -0.000006 -0.000006 -0.011054 -0.111352 -21.111300
0.000000 0.000000 0.000000 0.000000 0.000000 -0.000000 0.282289 90.214900 66.354000 -89.161800 2.878160 -176.823000 15.735700 0.000005 -0.000001 92.492800 80.772600 -91.979500 8.984550 -0.406207 -0.000000 10.668700 0.809968 0.950328 16.377300 -0.000001 -0.000001 9.293100 -0.648647 -0.130535 6.456720 -0.000001 -0.000000 3.767640 -1.742640 -0.721780 12.994200 -0.242716 4.980390 -88.111900 -4.399940 -66.747100 5.348090 -0.000007 -0.000001 -69.778200 29.037100 4.074490 24.328600 0.000019 0.000005 6.857780 7.739550 -41.768600 22.291600 -0.000001 0.000005 1.321410 5.578250 -10.118600 12.994500 -0.242716 -4.980390 89.746500 0.634323 -68.222800 -5.348130 -0.000001 -0.000004 -45.419800 27.953100 -31.836600 -24.328900 0.000322 -0.000009 -1.640930 -1.725880 -43.541600 -22.291500 -0.000108 -0.000004 3.464760 5.557280 -9.054630 -2.192480 -6.469440 -0.000000 -177.696000 -11.895100 -25.463400 39.081100 -0.000007 -0.000012 0.058326 -0.045886 51.804700 40.985400 -0.000006 -0.000013 2.694020 -0.995193 -57.881200 11.754300 -0.000000 0.000003 -0.005539 -0.066595 -19.286800 -2.192510 6.469440 -0.000001 179.242000 14.056100 175.018000 -39.081100 -0.002282 -0.040193 0.058799 -0.088391 32.124900 -40.985400 0.000008 0.000006 4.910180 -1.662300 -73.773600 -11.754300 -0.000006 -0.000006 -0.011262 -0.112834 -21.171900
0.000000 0.000000 0.000000 0.000000 0.000000 -0.000000 -0.158524 90.198000 62.729500 -89.070000 5.852790 -177.416000 15.735700 0.000005 -0.000001 98.339300 80.793300 -98.019500 8.984550 -0.406207 -0.000000 10.453500 2.659870 0.395956 16.377300 -0.000001 -0.000001 9.012020 0.136207 -0.160318 6.456720 -0.000001 -0.000000 3.699120 -2.370430 -0.616125 12.994200 -0.242716 4.980390 -87.988600 -4.420020 -65.501400 5.348090 -0.000007 -0.000001 -72.143300 27.654300 8.901010 24.328600 0.000019 0.000005 7.199780 8.887120 -39.274000 22.291600 -0.000001 0.000005 1.007510 5.570840 -9.730630 12.994500 -0.242716 -4.980390 90.021000 -0.056414 -69.513900 -5.348130 -0.000001 -0.000004 -42.042400 26.414700 -37.513500 -24.328900 0.000322 -0.000009 -2.104850 -2.085580 -45.264800 -22.291500 -0.000108 -0.000004 3.624230 5.557450 -9.061880 -2.192480 -6.469440 -0.000000 -178.668000 -15.016000 -26.635100 39.081100 -0.000007 -0.000012 0.038242 -0.049035 37.949400 40.985400 -0.000006 -0.000013 2.059140 -2.214760 -56.293800 11.754300 -0.000000 0.000003 -0.005748 -0.068533 -19.365800 -2.192510 6.469440 -0.000001 178.294000 12.346500 178.053000 -39.081100 -0.002282 -0.040193 0.053301 -0.087618 29.710900 -40.985400 0.000008 0.000006 4.491910 -0.233368 -74.687600 -11.754300 -0.000006 -0.000006 -0.011306 -0.113148 -21.184800
0.000000 0.000000 0.000000 0.000000 0.000000 -0.000000 -0.590364 89.479800 58.881700 -88.033500 8.843380 -177.823000 15.735700 0.000005 -0.000001 104.263000 80.577800 -103.792000 8.984550 -0.406207 -0.000000 10.503500 4.622180 0.518245 16.377300 -0.000001 -0.000001 8.553830 0.965975 -0.263472 6.456720 -0.000001 -0.000000 3.484320 -2.783600 -0.751440 12.994200 -0.242716 4.980390 -87.804300 -4.542340 -64.167200 5.348090 -0.000007 -0.000001 -73.926400 26.218600 13.199900 24.328600 0.000019 0.000005 7.408460 9.680040 -37.714800 22.291600 -0.000001 0.000005 0.030372 5.565310 -9.448020 12.994500 -0.242716 -4.980390 90.283200 -0.807657 -70.671300 -5.348130 -0.000001 -0.000004 -38.629500 24.082800 -42.672600 -24.328900 0.000322 -0.000009 -2.577550 -2.410460 -46.932300 -22.291500 -0.000108 -0.000004 3.838330 5.553750 -8.884310 -2.192480 -6.469440 -0.000000 -178.489000 -18.043000 -27.036000 39.081100 -0.000007 -0.000012 0.029016 -0.064663 24.166600 40.985400 -0.000006 -0.000013 1.990140 -1.965480 -55.009000 11.754300 -0.000000 0.000003 -0.005755 -0.068602 -19.368600 -2.192510 6.469440 -0.000001 177.936000 10.919300 -179.386000 -39.081100 -0.002282 -0.040193 0.047229 -0.078515 29.225000 -40.985400 0.000008 0.000006 3.746750 1.425390 -76.883400 -11.754300 -0.000006 -0.000006 -0.009470 -0.099637 -20.632100
0.000000 0.000000 0.000000 0.000000 0.000000 -0.000000 -0.975646 88.273900 54.600000 -86.453200 11.620800 -177.739000 15.735700 0.000005 -0.000001 109.340000 80.040800 -108.492000 8.984550 -0.406207 -0.000000 11.032800 6.570960 1.060770 16.377300 -0.000001 -0.000001 7.946790 1.738560 -0.407936 6.456720 -0.000001 -0.000000 3.189440 -2.975760 -0.999476 12.994200 -0.242716 4.980390 -87.684700 -4.557210 -63.029900 5.348090 -0.000007 -0.000001 -75.062900 25.295600 16.875700 24.328600 0.000019 0.000005 7.421460 10.036300 -36.775700 22.291600 -0.000001 0.000005 -0.600649 5.565430 -9.456790 12.994500 -0.242716 -4.980390 90.452100 -1.354010 -71.530700 -5.348130 -0.000001 -0.000004 -35.140800 21.161300 -47.262300 -24.328900 0.000322 -0.000009 -2.954700 -2.654460 -48.087000 -22.291500 -0.000108 -0.000004 4.001950 5.555450 -8.965640 -2.192480 -6.469440 -0.000000 -177.143000 -20.214200 -26.624000 39.081100 -0.000007 -0.000012 0.012609 -0.053748 13.202800 40.985400 -0.000006 -0.000013 2.196900 -0.903934 -56.525800 11.754300 -0.000000 0.000003 -0.005986 -0.070714 -19.454700 -2.192510 6.469440 -0.000001 177.739000 9.493360 -176.239000 -39.081100 -0.002282 -0.040193 0.034181 -0.054464 29.550500 -40.985400 0.000008 0.000006 2.998880 3.034430 -79.686300 -11.754300 -0.000006 -0.000006 -0.008053 -0.088464 -20.175500
0.000000 0.000000 0.000000 0.000000 0.000000 -0.000000 -1.450090 86.791300 49.973100 -85.459900 13.692500 -177.566000 15.735700 0.000005 -0.000001 112.998000 79.481600 -111.963000 8.984550 -0.406207 -0.000000 11.611000 8.185870 1.236820 16.377300 -0.000001 -0.000001 7.542230 2.217390 -0.356710 6.456720 -0.000001 -0.000000 2.959190 -3.167720 -1.095860 12.994200 -0.242716 4.980390 -87.597900 -4.617140 -62.474700 5.348090 -0.000007 -0.000001 -75.804200 24.527300 19.559700 24.328600 0.000019 0.000005 7.413700 10.331600 -35.961800 22.291600 -0.000001 0.000005 -0.825240 5.564380 -9.403570 12.994500 -0.242716 -4.980390 90.530400 -1.670000 -72.377000 -5.348130 -0.000001 -0.000004 -32.733900 17.796400 -50.225600 -24.328900 0.000322 -0.000009 -3.123500 -2.747280 -48.695000 -22.291500 -0.000108 -0.000004 4.218500 5.560330 -9.203480 -2.192480 -6.469440 -0.000000 -175.939000 -21.609300 -26.450600 39.081100 -0.000007 -0.000012 0.000701 -0.006074 6.592230 40.985400 -0.000006 -0.000013 1.034290 -0.854865 -57.843600 11.754300 -0.000000 0.000003 -0.006265 -0.073236 -19.557600 -2.192510 6.469440 -0.000001 176.738000 8.361210 -172.899000 -39.081100 -0.002282 -0.040193 0.017948 -0.025311 30.055900 -40.985400 0.000008 0.000006 2.140010 4.181370 -82.552600 -11.754300 -0.000006 -0.000006 -0.007576 -0.084533 -20.014900
0.000000 0.000000 0.000000 0.000000 0.000000 -0.000000 -2.059080 85.235200 44.840000 -85.625900 14.968400 -177.737000 15.735700 0.000005 -0.000001 115.978000 79.217200 -115.191000 8.984550 -0.406207 -0.000000 11.669900 9.394840 0.613472 16.377300 -0.000001 -0.000001 7.431460 2.318790 0.107108 6.456720 -0.000001 -0.000000 3.016110 -3.361750 -1.152800 12.994200 -0.242716 4.980390 -87.584900 -4.663410 -62.581500 5.348090 -0.000007 -0.000001 -75.857200 23.623500 21.267500 24.328600 0.000019 0.000005 7.438320 10.669100 -35.191400 22.291600 -0.000001 0.000005 -1.322120 5.562350 -9.302760 12.994500 -0.242716 -4.980390 90.503600 -1.614750 -72.675200 -5.348130 -0.000001 -0.000004 -31.374700 15.012000 -51.811100 -24.328900 0.000322 -0.000009 -3.150780 -2.789570 -48.508800 -22.291500 -0.000108 -0.000004 4.468120 5.561950 -9.283170 -2.192480 -6.469440 -0.000000 -177.363000 -23.351300 -29.910400 39.081100 -0.000007 -0.000012 0.000078 -0.000468 9.605190 40.985400 -0.000006 -0.000013 3.058930 -2.911630 -59.778800 11.754300 -0.000000 0.000003 -0.006437 -0.074763 -19.619900 -2.192510 6.469440 -0.000001 174.371000 7.706040 -169.821000 -39.081100 -0.002282 -0.040193 -0.007005 0.017622 30.321300 -40.985400 0.000008 0.000006 1.041700 5.199590 -84.318900 -11.754300 -0.000006 -0.000006 -0.008429 -0.091499 -20.299500
0.000000 0.000000 0.000000 0.000000 0.000000 -0.000000 -2.901460 84.028700 39.609300 -87.542700 15.311400 -179.143000 15.735700 0.000005 -0.000001 118.364000 79.653300 -118.475000 8.984550 -0.406207 -0.000000 10.564900 9.760540 -1.126770 16.377300 -0.000001 -0.000001 7.998680 2.321920 0.992396 6.456720 -0.000001 -0.000000 2.922910 -3.413050 -1.172510 12.994200 -0.242716 4.980390 -87.895600 -4.204800 -63.382900 5.348090 -0.000007 -0.000001 -74.945100 22.336300 21.963800 24.328600 0.000019 0.000005 7.715700 11.439400 -34.337600 22.291600 -0.000001 0.000005 -1.420610 5.559960 -9.185210 12.994500 -0.242716 -4.980390 90.245200 -0.799029 -72.942100 -5.348130 -0.000001 -0.000004 -30.951600 13.094500 -51.891200 -24.328900 0.000322 -0.000009 -2.722950 -2.477730 -47.717000 -22.291500 -0.000108 -0.000004 4.807080 5.562610 -9.315980 -2.192480 -6.469440 -0.000000 -179.765000 -22.033900 -39.361200 39.081100 -0.000007 -0.000012 0.194150 -0.435399 24.033000 40.985400 -0.000006 -0.000013 4.512490 -5.160890 -50.373900 11.754300 -0.000000 0.000003 -0.010908 -0.110315 -21.072600 -2.192510 6.469440 -0.000001 170.455000 7.587980 -169.261000 -39.081100 -0.002282 -0.040193 -0.045704 0.080064 31.468400 -40.985400 0.000008 0.000006 0.173307 5.823980 -82.841800 -11.754300 -0.000006 -0.000006 -1.599590 -1.720480 -23.646400
